<svg width="17" height="20" viewBox="0 0 17 20" fill="none" xmlns="http://www.w3.org/2000/svg">
<g clip-path="url(#clip0_28_223)">
<path d="M11.9 1.5625V0.625C11.9 0.279018 11.5964 0 11.22 0H5.78C5.40357 0 5.1 0.279018 5.1 0.625V1.5625H0.68C0.303571 1.5625 0 1.84152 0 2.1875V4.0625C0 4.40848 0.303571 4.6875 0.68 4.6875H16.32C16.6964 4.6875 17 4.40848 17 4.0625V2.1875C17 1.84152 16.6964 1.5625 16.32 1.5625H11.9V1.5625Z" fill="#D74444"/>
<path d="M2.03999 5.3125C1.85178 5.3125 1.66963 5.38504 1.54213 5.51339C1.41463 5.64174 1.34785 5.80915 1.35999 5.98214L2.71999 19.4196C2.74428 19.7489 3.04178 20 3.39999 20H13.6C13.9582 20 14.2557 19.7433 14.28 19.4196L15.98 5.98214C15.9921 5.80915 15.9253 5.64174 15.7978 5.51339C15.6703 5.38504 15.4882 5.3125 15.3 5.3125H2.03999ZM5.74356 17.1875C5.72535 17.1875 5.70713 17.1875 5.68892 17.1875C5.33678 17.1875 5.03928 16.9364 5.00892 16.6127L4.36535 8.8058C4.33499 8.45982 4.61428 8.15848 4.9907 8.13616C5.36106 8.10826 5.68892 8.36496 5.71928 8.71094L6.36892 16.5123C6.39928 16.8583 6.11999 17.1596 5.74356 17.1875ZM9.17999 16.5569C9.17999 16.9029 8.87642 17.1819 8.49999 17.1819C8.12356 17.1819 7.81999 16.9029 7.81999 16.5569V8.75C7.81999 8.40402 8.12356 8.125 8.49999 8.125C8.87642 8.125 9.17999 8.40402 9.17999 8.75V16.5569ZM11.8393 16.6127C11.8089 16.9364 11.5114 17.1819 11.1653 17.1819C11.1411 17.1819 11.1228 17.1819 11.0986 17.1763C10.7221 17.1429 10.4489 16.8415 10.4853 16.4955L11.2807 8.70536C11.3171 8.35938 11.645 8.10826 12.0214 8.14174C12.3978 8.17522 12.6711 8.47656 12.6346 8.82255L11.8393 16.6127Z" fill="#D74444"/>
</g>
<defs>
<clipPath id="clip0_28_223">
<rect width="17" height="20" fill="white"/>
</clipPath>
</defs>
</svg>
