<svg width="12" height="12" viewBox="0 0 12 12" fill="none" xmlns="http://www.w3.org/2000/svg">
<g opacity="0.9" clip-path="url(#clip0_25_201)">
<path d="M11.1416 5.16967C11.0248 5.16967 10.9105 5.21538 10.8267 5.29917C10.7429 5.38296 10.6971 5.49469 10.6971 5.61403V9.73252C10.6971 10.0956 10.5549 10.4435 10.2984 10.7025C10.0419 10.9615 9.69651 11.1062 9.33333 11.1113H2.26794C1.90222 11.1113 1.55175 10.9665 1.2927 10.7076C1.03365 10.4486 0.888889 10.0982 0.888889 9.73252V2.66862C0.888889 2.30298 1.03365 1.95258 1.2927 1.69358C1.55175 1.43459 1.90222 1.28986 2.26794 1.28986H6.3873C6.5473 1.28986 6.69206 1.20607 6.77333 1.06642C6.85206 0.929302 6.85206 0.759179 6.77333 0.622065C6.6946 0.484952 6.5473 0.398621 6.3873 0.398621H2.26794C1.66603 0.398621 1.09206 0.639839 0.665397 1.06388C0.24127 1.49299 0 2.06684 0 2.66862V9.73506C0 10.3368 0.24127 10.9107 0.665397 11.3373C1.08952 11.7613 1.66603 12 2.26794 12.0025H9.33587C9.93778 12.0025 10.5117 11.7613 10.9384 11.3373C11.3625 10.9132 11.6013 10.3368 11.6038 9.73506V5.61403C11.6038 5.49469 11.5556 5.37788 11.4692 5.29409C11.3778 5.21284 11.2635 5.16714 11.1416 5.16967Z" fill="#8B8C93"/>
<path d="M11.8705 1.98815L10.014 0.132036C9.9302 0.0482437 9.81591 0 9.69909 0C9.57972 0 9.46798 0.0482437 9.38417 0.132036L8.53845 0.98011L11.0223 3.46339L11.8705 2.61786C11.9518 2.53153 11.9975 2.41981 12 2.303C12 2.1862 11.9543 2.07194 11.8705 1.98815Z" fill="#8B8C93"/>
<path d="M3.68503 6.01777V7.87135C3.68503 7.98815 3.73075 8.10241 3.81456 8.1862C3.89837 8.26999 4.01011 8.3157 4.12948 8.3157H5.98344C6.10281 8.3157 6.21456 8.26999 6.29837 8.1862L10.3974 4.08802L7.9136 1.60474L3.81202 5.70292C3.73075 5.78671 3.68249 5.90097 3.68503 6.01777Z" fill="#8B8C93"/>
</g>
<defs>
<clipPath id="clip0_25_201">
<rect width="12" height="12" fill="white"/>
</clipPath>
</defs>
</svg>
