<?xml version="1.0" encoding="utf-8"?>
<!-- Generator: Adobe Illustrator 22.0.0, SVG Export Plug-In . SVG Version: 6.00 Build 0)  -->
<svg version="1.1" id="Layer_1" xmlns="http://www.w3.org/2000/svg" xmlns:xlink="http://www.w3.org/1999/xlink" x="0px" y="0px"
	 viewBox="0 0 700 700" style="enable-background:new 0 0 700 700;" xml:space="preserve">
<style type="text/css">
	.st0{fill:#999999;}
</style>
<g>
	<path class="st0" d="M-4303.9,8328.1h9307.9V1214.3h-9307.9L-4303.9,8328.1z M-2941.1,2444.4h6581.9
		c199.4,0,332.4,166.2,332.4,332.4c0,199.4-166.2,332.4-332.4,332.4l-6581.9-0.1c-199.4,0-332.4-166.2-332.4-332.4
		C-3273.4,2610.5-3140.5,2444.4-2941.1,2444.4L-2941.1,2444.4z M-2941.1,4239.4h6581.9c199.4,0,332.4,166.2,332.4,332.4
		c0,166.2-166.2,332.4-332.4,332.4h-6581.9c-199.4,0-332.4-166.2-332.4-332.4C-3273.4,4405.6-3140.5,4239.4-2941.1,4239.4
		L-2941.1,4239.4z M-2941.1,6067.7h6581.9c199.4,0,332.4,166.2,332.4,332.4c0,199.4-166.2,332.4-332.4,332.4h-6581.9
		c-199.4,0-332.4-166.2-332.4-332.4C-3273.4,6200.7-3140.5,6067.7-2941.1,6067.7L-2941.1,6067.7z"/>
	<path class="st0" d="M5003.9-7628.1H-4304V-3373l9307.9-0.1V-7628.1z M3641-4337.3c0,199.4-166.2,332.4-332.4,332.4
		c-166.2,0-332.4-166.2-332.4-332.4v-1961.2c0-199.4,166.2-332.4,332.4-332.4c166.2,0,332.4,166.2,332.4,332.4V-4337.3z"/>
	<path class="st0" d="M7630.1-7628.1H5668.8v4620.6c0,199.4-166.2,332.4-332.4,332.4h-9972.8c-199.4,0-332.4-166.2-332.4-332.4
		v-4620.6h-1263.2L-7628.2-6232V7630.1c0,398.9,299.2,698,698,698h1961.3V881.9c0-199.4,166.2-332.4,332.4-332.4h9972.8
		c199.4,0,332.4,166.2,332.4,332.4v7446.2h1961.3c398.9,0,698.1-299.2,698.1-698.1l-0.1-14560
		C8328.1-7328.9,8028.9-7628,7630.1-7628.1L7630.1-7628.1z"/>
</g>
</svg>
